<?xml version="1.0" standalone="no"?>
<!DOCTYPE svg PUBLIC "-//W3C//DTD SVG 20010904//EN"
 "http://www.w3.org/TR/2001/REC-SVG-20010904/DTD/svg10.dtd">
<svg version="1.0" xmlns="http://www.w3.org/2000/svg"
 width="260.000000pt" height="260.000000pt" viewBox="0 0 260.000000 260.000000"
 preserveAspectRatio="xMidYMid meet">
<metadata>
Created by potrace 1.11, written by Peter Selinger 2001-2013
</metadata>
<g transform="translate(0.000000,260.000000) scale(0.100000,-0.100000)"
fill="#000000" stroke="none">
<path d="M1750 2023 c-156 -7 -200 -24 -200 -77 0 -17 -12 -34 -35 -52 -29
-22 -35 -33 -35 -63 0 -47 -26 -135 -44 -150 -18 -15 -31 1 -56 74 -25 72 -59
131 -97 168 l-29 27 -235 -2 -234 -3 -12 -27 c-26 -53 -174 -637 -189 -741 -8
-61 -22 -67 -157 -67 -56 0 -108 -4 -115 -8 -10 -7 -11 -57 -5 -238 l8 -229
120 -6 c66 -3 134 -9 151 -13 21 -5 33 -4 41 6 25 31 63 191 93 388 26 174 62
332 83 363 13 20 27 25 78 30 172 18 303 1 350 -47 13 -13 42 -68 64 -121 42
-102 62 -125 106 -125 42 0 64 27 121 150 77 165 85 178 110 182 13 2 73 1
133 -2 l110 -5 24 -62 25 -63 52 0 c29 0 76 -5 104 -11 33 -7 55 -8 62 -1 5 5
10 44 11 87 2 88 4 86 -95 100 -45 6 -48 8 -57 43 -12 44 -38 229 -46 327 -8
89 -22 133 -46 145 -28 16 -97 25 -159 23z"/>
</g>
</svg>
