<?xml version="1.0" encoding="utf-8"?>
<!-- Generator: Adobe Illustrator 22.0.1, SVG Export Plug-In . SVG Version: 6.00 Build 0)  -->
<svg version="1.1" id="Layer_1" xmlns="http://www.w3.org/2000/svg" xmlns:xlink="http://www.w3.org/1999/xlink" x="0px" y="0px"
	 viewBox="0 0 268.8 219.5" style="enable-background:new 0 0 268.8 219.5;" xml:space="preserve">
<path id="XMLID_295_" d="M1.5,96.8c-0.2,0.7-0.3,11.6-0.2,25.3c0,7.4-0.4,14.8-1,16.7c-0.7,2.2-0.2,9.5,0.7,10.5
	c0.6,0.7,1.7,0.8,9.6,1.1c4.9,0.2,13.4,0.4,18.9,0.4c10.4,0,14.1,0.3,18.4,1.3c1.4,0.3,5.6,0.8,9.4,1c3.8,0.3,10,0.7,13.8,1
	c3.8,0.4,9.1,0.8,11.7,1c2.6,0.2,6.2,0.7,7.7,1c11.5,2.7,13.9,3.1,19.7,3.4c3.2,0.1,6.4,0.4,7,0.6c0.9,0.3,3.3,0.3,8.3,0
	c4.1-0.2,7.9-0.3,9,0c1.1,0.2,4.3,0.5,7.2,0.7c3.3,0.2,6.1,0.6,7.6,1.1c1.3,0.4,3.1,0.8,3.9,0.8c2.2,0,9.7-0.9,10.3-1.2
	c0.5-0.3,0.8-2.1,1.4-10.3l0.5-6.3l1.7-2.1c1-1.3,2.1-3.5,2.8-5.5l1.2-3.4l3-1.3c4.8-2.1,5.3-2.7,5.6-6.1c0.4-6.1,0-5.7,5.6-6.5
	c4.3-0.6,4.4-0.5,5.2,4.1c0.8,4.8,1.6,5.2,8.1,3.8c0.9-0.2,1.8-0.2,2,0c0.1,0.2,0.8,1.9,1.3,3.9c1.1,3.5,1.4,4,3.9,6.3
	c1.1,1,1.3,1.6,1.7,4.6c0.3,1.9,0.5,5.9,0.5,8.8c0,5.9,0.3,7.3,1.9,7.9c0.5,0.2,4.2,0.6,8.1,0.8c3.9,0.3,8.2,0.6,9.5,0.9
	c10.8,1.8,13.5,2.1,23.6,2.1c7.8,0,10.3-0.1,10.7-0.5c0.3-0.3,1-3.2,1.7-6.4c1.2-5.9,1.7-7.6,3.1-10.3c0.5-0.8,1.1-2.6,1.5-3.9
	c0.7-2.3,0.7-2.4,0-3.2c-0.9-1-3.3-1.5-9.3-2.1c-7.1-0.8-9.5-1.1-12.9-2.1c-3.7-1.1-5.7-2.6-8-5.9c-0.8-1.2-1.9-2.7-2.5-3.3
	c-0.5-0.6-1.5-1.7-2-2.5c-1.5-2.2-2.3-3.1-6.7-7.5c-6.3-6.4-8.9-9.3-11.1-12.4c-3.2-4.4-3.8-5.3-4.6-7.6c-1.6-4.4-3-7.7-4.6-10.5
	c-0.9-1.6-2.1-3.6-2.5-4.4c-0.4-0.8-1.3-2.2-2-3.1c-3.7-5.2-5.7-8.1-6.3-9.2c-0.6-1.2-2.5-7.2-3-9.4c-0.1-0.7-0.7-1.3-1.6-1.6
	c-1.4-0.5-10.8-1-13.1-0.7c-1.9,0.3-3.8,2.5-5,5.8c-0.5,1.5-1.4,3.5-1.8,4.4c-1.1,2.1-1.5,3.5-2.6,7.7c-1.1,4.7-3.1,10.3-4.1,11.7
	c-0.5,0.6-1.2,2.2-1.7,3.6c-2.4,7-3.4,9.1-4.8,10.1c-0.9,0.5-2.6,0.6-11.2,0.7c-19.3,0-43.7-0.4-45.6-0.8c-1-0.3-3.9-0.5-6.5-0.7
	c-2.5-0.1-6.5-0.5-8.8-0.8c-10.2-1.5-15.1-2-20.9-2.3c-11.8-0.7-19.3-1.2-22.6-1.6c-17.1-2-19.5-2-32-0.2L1.5,96.8z"/>
</svg>
