<?xml version="1.0" encoding="utf-8"?>
<!-- Generator: Adobe Illustrator 22.0.1, SVG Export Plug-In . SVG Version: 6.00 Build 0)  -->
<svg version="1.1" id="Layer_1" xmlns="http://www.w3.org/2000/svg" xmlns:xlink="http://www.w3.org/1999/xlink" x="0px" y="0px"
	 viewBox="0 0 268.8 219.5" style="enable-background:new 0 0 268.8 219.5;" xml:space="preserve">
<path id="XMLID_296_" d="M79.5,0.5c-1,0.4-2.9,0.8-4.1,1c-1.3,0.2-2.6,0.7-2.9,1.1c-0.9,1-0.5,2.4,0.9,3.1c1.1,0.5,1.1,0.7,1,7.7
	c-0.1,13.4,0.6,40.3,1.1,41.6c0.3,0.7,0.7,3.7,0.9,6.6c0.6,7.9,0.4,7.6,6,7.7c11.8,0.1,13.9,0.7,17.1,5.1c0.9,1.2,2.3,3.2,3.2,4.3
	c1.9,2.6,7.1,11.3,7.8,13c0.9,2.1,1.9,6.8,1.9,8.5c0,2.4,4.1,22.5,6.3,31.4c0.7,2.8,1.5,6.9,1.8,9.2c0.3,2.3,0.9,5.8,1.3,7.8
	c2.3,12.1,2.4,13.7,3.8,45.7c0.5,11.4,0.6,11.8,4.2,17.8c1.1,1.7,1.9,3.4,1.9,3.6c0,1.2,3.5,3.5,6.1,4c0.7,0.1,12.8,0.1,50.4-0.1
	c6.2-0.1,6.8-0.2,7.9-1.1c1-1,1-1.2,0.3-2.3c-0.5-0.7-1-2.6-1.2-4.3c-0.2-1.7-0.6-3.6-0.8-4.2c-0.3-0.6-0.7-3.7-1-6.9
	c-0.3-3.1-1.1-9.4-1.8-13.9c-0.7-4.5-1.6-11.5-2-15.6c-0.4-4.1-1.1-9.6-1.5-12.2c-1-6.9-2.3-15-2.9-18.6c-0.3-1.7-0.7-4.6-0.9-6.6
	c-0.5-4.8-0.6-4.8-11.5-4.4c-9.2,0.3-18.3-0.2-20-1.1c-0.6-0.4-2.7-2.1-4.7-3.9l-3.6-3.3l-0.1-5.9c-0.1-5.4-0.8-13.4-1.3-15.4
	c-0.6-1.9-1.8-20.9-1.6-23c0.3-2.1-0.4-13.6-1-16.1c-0.4-1.5-2.9-2.2-8.9-2.7l-4.9-0.3l0.2-12.5c0.1-6.9,0.4-13.9,0.7-15.7
	c0.7-4.8,0.1-24.1-0.9-25.1c-0.6-0.6-2.6-0.9-8.3-1.1c-4.5-0.2-8.5-0.7-10-1.1c-1.4-0.5-3.5-0.8-4.7-0.8s-3.3-0.2-4.6-0.5
	C94.8-0.1,81.6-0.3,79.5,0.5z"/>
</svg>
