<?xml version="1.0" encoding="utf-8"?>
<!-- Generator: Adobe Illustrator 22.0.1, SVG Export Plug-In . SVG Version: 6.00 Build 0)  -->
<svg version="1.1" id="Layer_1" xmlns="http://www.w3.org/2000/svg" xmlns:xlink="http://www.w3.org/1999/xlink" x="0px" y="0px"
	 viewBox="0 0 1589.1 454.3" style="enable-background:new 0 0 1589.1 454.3;" xml:space="preserve">
<g>
	<path d="M373.1,227.7c-2-0.7-17.6-4.3-20.7-5.2c-9.5-2.5-16.4-6.3-16.4-17.3c0-12.2,9.2-19.4,19.4-19.4c15.1,0,26.1,16.4,34.2,33.5
		l1.8-0.5l-2.7-30.2c-8.5-3.4-19.4-6.1-32.6-6.1c-19.8,0-38.5,12.4-38.5,31.7c0,13.7,7.9,24.5,19.1,28.6c6.1,2,14.9,4.3,22.1,6.1
		c9.9,2.2,16.4,7.7,16.4,16.9c0,16.4-10.1,23.9-22.7,23.9c-17.8,0-29-22.5-34.2-36.7h-1.8v32c9.9,4.5,22.7,7.9,37.1,7.9
		c22.5,0,44.1-10.6,44.1-34.7C397.6,243,387.3,231.5,373.1,227.7z"/>
	<path d="M473.9,274.7c-25.4,0-39.6-21.2-39.6-46.8c0-2.7,0.2-5.6,0.2-7.9h70.4c-1.6-22.7-16.4-34.5-36.7-36.9l0.6-4.5
		c0.8-6.6,1.9-15.3,2.3-19.3c0.9-6.4,0.8-7.4-1.1-9.1c-3.2-2.8-22.4-6.8-28.6-6c-2.8,0.3-5.7,0.2-6.3-0.2
		c-2.2-1.4-10.6-54.3-12.6-78.9c-2.7-35-4.1-39.9-12.9-44.1c-6-3-18.8-5.9-24.6-5.7c-2.2,0.1-12.9,0.7-23.5,1.1
		c-19.2,1-24.9,1.9-31.8,5.1c-3.8,1.8-4.1,2.5-5.2,14.1c-0.8,7.3-2.9,10.1-8.6,11.3c-7,1.4-9.1,6.3-9.2,20.9
		c0,9.4-0.4,12.3-3.1,19.4c-3.8,10-5.2,12.1-8.5,12.4c-2.2,0.3-3-0.8-6-8.5c-2-4.9-4.2-11.4-5.1-14.4c-2.8-10.4-10.5-24-18.1-31.8
		c-0.8-0.8-2.9-3.3-4.5-5.7c-1.8-2.3-4.1-4.7-5.3-5.3c-1.2-0.7-22.6-1.1-55.1-1.2l-53.2-0.1l-3.8,2.9c-2.1,1.6-4.1,4-4.4,5.4
		s-1.1,4-1.7,5.9c-2.7,7.8-4.8,15.2-8.1,27.7c-1.9,7.3-4.7,17.5-6,22.7c-5.7,20.7-13.1,49.9-15,58.7c-1.2,5.2-3.1,13.6-4.3,18.8
		c-1.1,4.3-2.5,10.3-3.5,14.7c-4.4-4.4-10.2-6.9-17.3-6.9c-16.9,0-29.9,13.5-36,24.3l-0.5-0.2v-24.3h-1.3l-34.2,13.1v1.3
		c3.6,1.6,7.7,3.6,10.4,5.2c2,1.4,2.2,2.5,2.2,4.7v74.7c0,4.7-5.9,7.4-12.8,8.1v2.3h18.6c0.1,5.4,0.2,11.9,0.2,18.8
		c0,21.8-0.4,29.8-1.4,31.6c-1.1,1.7-1.1,2.7-0.2,4.2c1.3,2.1,2.5,2.1,38.1,2.4c18,0.1,22.3,0.7,29.8,4.1c2.7,1.2,4.7,1.4,7.2,0.7
		c3.1-0.9,3.7-1.7,5.2-8.1c1-4,2.8-9.2,4-11.6c2.4-4.9,4.2-12.1,5.4-21.6c0.3-3.3,1.9-9.6,3.4-13.9c1.6-4.8,3.1-12.4,3.8-19.8
		c0.6-6.5,1.3-12.4,1.6-13c0.3-0.4,1.3-6.8,2.2-14c0.9-7.2,2.4-16.3,3.3-20.3c0.9-4,2.4-11,3.3-15.5c1.1-5.7,2.1-10.6,3-14.8
		c7.3,3.8,10.2,13,10.2,25.5v55.8c0,4.7-5,6.5-13,7v2.5h50v-2c-5.2-0.7-13.5-2.2-13.5-6.8v-66.6c0-19.6-9-33.8-26.3-33.8
		c-1,0-2.1,0.1-3.1,0.2c1-3.9,2-6.5,2.9-8.6c1.7-3.7,3.1-6.6,3.2-6.9c1.4-1.7,19.1-3.4,41.6-4c29-0.8,34.5-0.2,47.8,4.8
		c7.9,3,16,10.4,17.1,15.6c0.1,0.3,0.2,0.8,0.3,1.2h-8.7v2.5c3.5,0.4,7.1,0.9,10.2,1.6c0.6,1.4,1.2,2.8,1.8,4.1
		c2.3,4.5,4.8,10.3,7.1,16v57c-4.7,5.9-10.1,11.7-21.8,11.7c-15.1,0-19.1-9.5-19.1-29V185h-39.6v2.5c5.6,0.5,12.8,0.9,15.1,6.1
		c0.9,1.8,1.1,8.5,1.1,11v54.7c0,21.8,9,34,28.1,34c16.7,0,29.5-13.7,36-24.1l0.2,0.5v23.2h1.6l36.5-7.9v-1.4
		c-3.6-1.6-9.9-4.5-12.6-6.1c-2-1.4-2.3-2.5-2.3-4.7v-37.2c1.6,0.1,3.1-0.3,6-1.2c4.3-1.3,6.8-3,9-6c3-3.8,9.3-18.1,9.3-20.7
		c0-0.7,2.5-5.7,5.7-11.1c3.2-5.5,6.6-12.9,7.9-16.5c1.2-3.5,3.3-8.3,4.7-10.5c1.4-2.2,3.7-6.4,4.9-9.3l2.3-5.3l29.1,0.7
		c16.1,0.4,30.4,0.9,31.8,0.9c2,0.2,2.9,1.3,4.2,5.2c0.9,2.8,2.2,6.4,3.1,8.3c0.8,1.8,2,6.2,2.8,9.6c0.7,3.5,1.9,6.8,2.5,7.2
		c0.8,0.4,8.5,1,17.4,1.1c3.1,0.1,5.7,0.1,8,0.2c-17.2,9.1-27.2,28.5-27.2,47.1c0,31.5,20,57.6,52.2,57.6c27,0,41.2-23,43.7-36.7
		l-2-0.5C501.3,266.6,488.1,274.7,473.9,274.7z M47.5,233.2v-23.9c6.3-6.8,11.5-10.1,20-10.1c14.2,0,19.1,10.6,19.1,27.2v5.9h-13
		C64.7,232.3,55.4,232.7,47.5,233.2z M451.1,189c2.4,0.4,4.1,1.1,5.9,1.9c2.3,1.2,4.2,1.4,6.8,0.8l3.5-0.9l0.3-2.4
		c6.6,3.3,10.4,10.5,10.4,18.2c0,4-0.9,6.1-2.9,8.1c-2.7,1.1-6.3,1.6-9.5,1.6c-12.6,0.2-18.7,0.7-30.6,0.7
		C435.5,210.6,441.2,195.1,451.1,189z"/>
	<path d="M1528.2,292.7c27,0,41.2-23,43.7-36.7l-2-0.5c-3.6,11-16.9,19.1-31.1,19.1c-25.4,0-39.6-21.2-39.6-46.8
		c0-2.7,0.2-5.6,0.2-7.9h70.4c-1.8-25.7-20.5-37.4-44.8-37.4c-30.4,0-49.1,27-49.1,52.4C1476,266.6,1496,292.7,1528.2,292.7z
		 M1524.4,186.5c11.5,0,18.5,9.7,18.5,20c0,4-0.9,6.1-2.9,8.1c-2.7,1.1-6.3,1.6-9.5,1.6c-12.6,0.2-18.7,0.7-30.6,0.7
		C1500.5,209,1509.3,186.5,1524.4,186.5z"/>
	<path d="M1309.5,182.3c-0.3,0-0.7,0-1,0c-6.1-0.1-11.3-0.6-11.5-0.9c-0.3-0.3-1-5.8-1.4-14.2c-1-19.6-1.5-26.5-2.1-28.3
		c-0.3-0.8-0.1-1.7,0.4-2c1.6-0.9,1-4.3-1.3-6.3c-2.2-2.1-3.6-2.2-11.4-1.2c-2.4,0.3-6.4,1.2-8.8,1.9c-2.8,0.9-6.9,1.3-10.8,1.3
		c-9.2-0.2-34.4,0.7-38.1,1.2c-1.7,0.3-4.3,1.5-5.9,2.8c-2.5,2.1-2.7,2.6-2.3,5.6c2.1,13.7,2.2,34.3,0.5,43.6
		c-9.5,3.3-21.7,8.9-31.4,14.7c-6.1,3.8-13.1,8.1-13.1,16.2c0,5.4,5.2,9.7,10.8,9.7c6.1,0,12.8-4.3,12.8-8.6v-13.7
		c0-3.6,5.4-10.1,14.9-10.8c1.3,0.1,2.4,0.2,3.6,0.4c0,1.2,0.2,2.9,0.6,5.5c0.5,3.5,1.1,9.4,1.4,13.1c0.2,3.7,1,11.3,1.6,17
		c0.1,0.9,0.2,2,0.3,3.2c-6.1,3.3-14.6,7.8-26.7,15c-9.9,5.9-17.6,14.6-17.6,23.2c0,15.5,11.3,22.1,21.6,22.1
		c11,0,19.7-5.3,25.5-11.8c0.2,3.2,0.4,6.9,0.6,10.6c0.8,18.7,1.2,20,6,19.5c1.8-0.2,8.1-0.8,14-1.3c12.4-1.3,12.1-1.3,14.5,6.2
		c1.6,5,3,5.7,11,5.7c2.9,0,9.7,0.2,15.1,0.6l9.6,0.5l0.5,3.2c0.3,1.8,0.7,10.7,1,19.8c0.3,16.7,1.3,25,3,26.9
		c0.5,0.6,2,1.2,3.3,1.5c7.9,1.6,12.3,2.2,25.5,3.6c15.5,1.7,25.6,4.1,28.8,7c1.9,1.7,2.6,5.5,3.9,21.7c0.5,6.6,1.2,10.5,2,11.2
		c1.6,1.3,9.3,3.3,18,4.7c4,0.6,7.7,1.6,8.3,2.2c1.5,1.3,4.8,9.9,4.8,12.2c0,2.4,2.6,5.1,5.4,5.5c1.3,0.2,3.4,0.8,4.7,1.2
		c3.6,1.3,17.5,1.9,18.9,0.8c0.9-0.6,1.4-0.6,1.8,0c0.3,0.5,1,0.6,1.4,0.3c0.5-0.2,2.3-0.6,4.1-0.7c1.7-0.1,7.7-1.3,13.2-2.5
		c10.5-2.5,14.8-4.8,18-9.7c0.9-1.3,2.3-2.4,3.2-2.4c1.7,0,10.8,1.8,16.1,3.2c1.6,0.4,6,1.5,9.5,2.4c3.6,0.9,12,3.2,18.7,5.1
		c6.7,2,15.3,4,19.1,4.3c3.8,0.5,9.9,1.4,13.4,2.1c3.6,0.7,8.1,1.4,10,1.7c1.9,0.2,3.9,0.6,4.4,1s4,0.8,7.9,0.9
		c6.9,0.2,7,0.2,10.5-2.5c1.9-1.5,3.7-3.5,3.9-4.3c1-4,3.3-28.7,3.6-38.7c0.2-6.7,0-21.5-0.3-33.4c-0.4-11.9-0.9-28.6-1.1-37.1
		c-0.3-11.4-0.7-15.6-1.6-16.3c-2.3-2-14-4.3-21.1-4.3c-7.5,0-9.1-0.6-9.1-3.6c0-3.2-1-4.3-5.9-6.3c-4.1-1.6-7.1-2.1-21.3-2.8
		c-19.5-1.2-31.8-1.4-46.3-0.1c-1.7-16.3-14.6-29.5-35.1-29.5h-34.9c-5.9,0-11.7-0.5-15.8-2.5c-0.4-3.1-0.6-5.2-0.9-6.3
		c-0.4-2.2-1.3-5.4-2.3-8.4c2.1-2.3,5.5-3.7,10.2-4c6.1,0.2,9.7,1.1,15.1,1.1c29.3,0,47.3-11.5,47.3-35.6c0-8.8-3.6-14.6-8.1-21.8
		l0.7-0.9c7.9,5.2,17.6,12.8,22.5,12.8c5.2,0,8.8-5,8.8-10.1c0-5.4-3.8-9.9-9.2-9.9c-7.2,0-11.5,5.2-18.9,5.2
		c-3.2,0-5.2-0.2-7.7-1.1c-9.9-5-18-6.8-30.4-6.8c-26.3,0-45.2,14.9-45.2,34.4c0,15.1,8.1,25.2,21.2,30.4v0.7
		c-2.7,0.3-5.2,0.9-7.5,1.7c-0.9-2.3-1.7-4.1-2.1-4.3c-4-2.4-19.6-3.2-31.8-1.7c-3.9,0.5-9.6,0.6-12.8,0.3l-5.6-0.6v-10.1
		c0-6.7-0.6-13.1-1.7-18.7c-0.8-3.7-1.6-8.4-2.2-11.6c2-1.4,4.1-2.2,6.3-2.2c6.3,0,5.6,8.3,17.3,8.3c5.2,0,10.6-5.2,10.6-13
		s-6.1-13.5-13.7-13.5c-9.7,0-16.8,6.2-21.8,13.2c-1.9-10.3-2.7-13.3-9.5-13.6C1312.8,182.5,1310.6,182.3,1309.5,182.3z
		 M1410.6,186.3c14.9,0,21.4,13.5,21.4,28.8c0,16.7-7,32.4-21.6,32.4c-11.7,0-20.5-12.4-20.5-30.2
		C1389.9,201.6,1396.8,186.3,1410.6,186.3z M1209.4,276.1c-7.7,0-13.7-6.8-13.7-14.4c0-12.6,11.8-19.7,22.1-25.6
		c0.4,5.6,0.8,12.3,1.1,17.6c0.3,7.8,0.6,15.8,0.9,17.8c0.1,0.5,0.2,1.5,0.2,2.8C1216.8,275.5,1213,276.1,1209.4,276.1z M1413,293.2
		c16.2,0,23.9,1.6,29.9,5c2,1.1,3.9,2.7,5.3,5c-1,0.1-2.1,0.3-3.1,0.4c-15,2.1-53,0.9-56-1.9c-0.4-0.3-0.8-2.4-1.1-4.9
		c0.9-0.6,1.9-1.2,2.9-1.8C1395,294.3,1407,293.2,1413,293.2z"/>
	<path d="M1141.4,186.7c-0.1,0-0.1,0-0.2,0v-57.5h-1.6l-36.9,12.8v1.3c3.6,1.6,10.4,5.4,13.1,7c2,1.3,2.3,2.5,2.3,4.7v28.4
		c-1.7-0.4-3.4-0.8-5.2-1.4c-8.2-2.4-12.6-5.8-17.6-13.2c-1.9-2.7-4.3-5.9-5.5-7.2s-3.3-3.8-4.5-5.6c-3.4-4.8-5.2-6.9-14.9-16.6
		c-14-14.2-19.7-20.5-24.6-27.4c-7.2-9.8-8.4-11.8-10.1-16.8c-3.5-9.8-6.7-17-10.3-23.2c-2-3.6-4.6-8-5.5-9.8s-3-4.9-4.5-7
		c-8.3-11.5-12.7-17.9-13.9-20.4c-1.4-2.6-5.6-15.9-6.7-20.9c-0.3-1.6-1.5-2.8-3.5-3.5c-3.1-1.2-23.9-2.2-29.2-1.5
		c-4.2,0.7-8.5,5.6-11.1,12.8c-1.2,3.4-3.1,7.8-4.1,9.7c-2.4,4.7-3.4,7.7-5.7,17c-2.5,10.5-7,22.9-9.2,26c-1,1.4-2.7,4.9-3.7,7.9
		c-5.3,15.6-7.5,20.2-10.7,22.3c-2,1.2-5.9,1.4-24.9,1.5c-42.7,0-96.9-0.9-101.1-1.9c-2.3-0.6-8.7-1.2-14.4-1.6
		c-5.6-0.3-14.4-1.1-19.5-1.9c-22.6-3.3-33.4-4.5-46.4-5.2c-26.1-1.5-42.7-2.7-50.2-3.5c-37.9-4.4-43.2-4.4-71.1-0.4l-19.9,6.5
		c-0.5,1.6-0.7,25.7-0.4,56c0.1,16.3-0.8,32.8-2.2,37.1c-1.5,4.8-0.5,21,1.5,23.2c1.4,1.5,3.8,1.8,21.1,2.5v49.2
		c-4.7,5.9-10.1,11.7-21.8,11.7c-15.1,0-19.1-9.5-19.1-29V185h-39.6v2.5c5.6,0.5,12.8,0.9,15.1,6.1c0.9,1.8,1.1,8.5,1.1,11v54.7
		c0,21.8,9,34,28.1,34c16.7,0,29.5-13.7,36-24.1l0.2,0.5v23.2h1.6l36.5-7.9v-1.4c-3.6-1.6-9.9-4.5-12.6-6.1c-2-1.4-2.2-2.5-2.2-4.7
		v-55.1c6.8,0.1,13.5,0.2,19,0.2c6.4,0,11.6,0,16.1,0.2v63.5c0,4.7-5.9,7.4-12.8,8.1v2.3H684v-2.3c-6.1-0.9-11.3-0.9-12.4-6.8v-62.5
		c0.5,0.1,1.1,0.2,1.6,0.4c3.1,0.7,12.4,1.7,20.9,2.2c4.6,0.3,10.6,0.7,16.6,1.2c0,0.7,0,1.5,0,2.2v56c0,4.7-5.4,6.5-13.5,7v2.5
		h49.1v-2.3c-5.2-0.7-12.2-2-12.2-6.5v-56.9c6.3,0.5,12.7,1.1,16.6,1.4c5.9,0.4,13.7,1.5,17.2,2.3c1.9,0.4,3.7,0.9,5.4,1.3v51.3
		c0,4.7-5,6.5-13.1,7v2.5h50v-2c-5.2-0.7-13.5-2.2-13.5-6.8V236c5.1,0.8,9.3,1.1,14.9,1.3c7.2,0.2,14.2,0.8,15.6,1.4
		c2,0.7,7.2,0.7,18.5,0.1c9-0.5,17.6-0.6,20.1-0.1c2.4,0.5,9.6,1.1,16,1.5c6.5,0.3,12,1.1,15.6,2c-2.7,1.5-5.6,3.3-8.8,5.1
		c-9.9,5.9-17.6,14.6-17.6,23.2c0,15.5,11.3,22.1,21.6,22.1c16.2,0,27.2-11.5,32-21.2l0.4,0.2c0.4,14.6,10.6,21.2,21.6,21.2
		c14,0,23.9-13.5,24.5-25h-1.6c-1.1,4.5-3.8,8.1-10.8,8.1c-5.9,0-11.5-3.2-11.5-16.7c0-20.5,0.7-29.3,0.7-50.6
		c0-5.2-0.2-11.2-1.4-13.3c-0.9-1.8-2-3.4-3.3-4.9c0.3-0.8,0.7-1.7,1-2.5l2.7-7.5l6.6-3c10.7-4.6,11.8-5.9,12.4-13.6
		c0.8-13.6,0-12.6,12.4-14.4c9.5-1.3,9.7-1.1,11.4,9.2c1.5,9.3,3.1,11.1,13,9.4l-31.6,28.1v2.5h16.7c0,19.6-0.7,46.6-0.7,74.7
		c0,9.7,13.3,19.8,26.8,19.8c20,0,30.4-14,33.8-23.2l-1.4-0.7c-3.8,5.2-9.9,8.8-18.7,8.8c-10.6,0-17.1-6.5-17.1-21.8v-57.6h16.8
		c0.1,0.4,0.1,0.8,0.2,1.2c0.7,4.3,1.1,13,1.1,19.5c0,13.1,0.7,16.2,4.2,17.5c1.2,0.5,9.3,1.3,17.9,1.9c8.5,0.6,18.1,1.4,21.2,2
		c21.7,3.7,28.6,4.5,46.2,4.6V281c0,4.7-3.4,7.4-17.1,8.3v2.5h56.9v-2.5c-11.5-1.1-16.7-1.1-16.7-7.2V245c4.4-0.2,6.2-0.5,6.7-1
		c0.7-0.7,2.3-7.1,3.7-14.2c2.6-13.1,3.7-16.8,6.9-22.8c1-1.8,2.5-5.7,3.4-8.5c1.6-5.1,1.6-5.4,0-7.2
		C1160,189.3,1154.6,188.1,1141.4,186.7z M922.8,270.9c-3.2,3.6-9.7,5.2-15.5,5.2c-7.7,0-13.7-6.8-13.7-14.4
		c0-7.7,4.4-13.3,10.1-17.9c1.5,0.3,2.8,0.5,3.6,0.5c3.2,0,11.9-0.9,17.5-1.7v22.3C924.8,267.1,924.3,269.1,922.8,270.9z
		 M1010.1,185v-18.2c1-0.1,1.7,0,2,0.2c0.3,0.4,1.7,4.3,3,8.6c1.5,4.8,2.3,7.1,4,9.3L1010.1,185L1010.1,185z"/>
</g>
</svg>
