<?xml version="1.0" encoding="utf-8"?>
<!-- Generator: Adobe Illustrator 22.0.1, SVG Export Plug-In . SVG Version: 6.00 Build 0)  -->
<svg version="1.1" id="Layer_1" xmlns="http://www.w3.org/2000/svg" xmlns:xlink="http://www.w3.org/1999/xlink" x="0px" y="0px"
	 viewBox="0 0 268.8 219.5" style="enable-background:new 0 0 268.8 219.5;" xml:space="preserve">
<path id="XMLID_293_" d="M194.5,20c-10.2,0.5-13.3,1-17,2.7c-2,0.9-2.2,1.4-2.8,7.5c-0.4,3.9-1.5,5.4-4.6,6
	c-3.7,0.8-4.8,3.4-4.9,11.2c0,5-0.2,6.6-1.7,10.3c-2,5.3-2.8,6.4-4.6,6.6c-1.2,0.2-1.6-0.4-3.2-4.6c-1.1-2.6-2.2-6.1-2.7-7.7
	c-1.5-5.6-5.6-12.8-9.6-17c-0.4-0.4-1.5-1.8-2.4-3c-0.9-1.2-2.2-2.5-2.8-2.8c-0.7-0.4-12.1-0.6-29.4-0.7l-28.4-0.1l-2,1.5
	c-1.1,0.8-2.2,2.1-2.4,2.9c-0.2,0.8-0.6,2.1-0.9,3.1c-1.4,4.1-2.5,8.1-4.3,14.8c-1,3.9-2.5,9.3-3.2,12.1c-3,11.1-7,26.6-8,31.3
	c-0.7,2.8-1.7,7.3-2.3,10c-0.7,2.8-1.7,6.9-2.2,9.2c-0.5,2.2-1.3,5-1.8,6.1c-0.5,1.1-0.8,3.8-0.8,6c0,2.2-0.4,5.2-0.9,6.7l-0.9,2.7
	h-9.9c-10.8,0-22.6,0.9-24.5,2c-0.9,0.5-1.1,1-0.8,2.5c0.2,1.1,0.6,5.7,0.9,10.5c0.3,4.7,0.7,9.2,0.9,9.9c0.2,0.7,0.3,8.3,0.4,17
	c0,11.6-0.2,15.9-0.8,16.8c-0.6,0.9-0.6,1.4-0.1,2.2c0.7,1.1,1.4,1.1,20.3,1.3c9.6,0.1,11.9,0.4,15.9,2.2c1.4,0.7,2.5,0.8,3.8,0.4
	c1.7-0.5,2-0.9,2.8-4.3c0.5-2.1,1.5-4.9,2.1-6.2c1.3-2.6,2.2-6.4,2.9-11.5c0.2-1.8,1-5.1,1.8-7.4c0.8-2.5,1.7-6.6,2-10.6
	c0.3-3.5,0.7-6.6,0.8-6.9c0.2-0.2,0.7-3.6,1.2-7.4s1.3-8.7,1.8-10.8c0.5-2.1,1.3-5.9,1.8-8.3c2.9-14.7,4-19.2,5.4-22.2
	c0.9-2,1.7-3.5,1.7-3.7c0.8-0.9,10.2-1.8,22.2-2.1c15.5-0.4,18.4-0.1,25.5,2.5c4.2,1.6,8.5,5.6,9.1,8.3c0.2,1.1,1.1,3.4,2,5
	c2.1,4.3,4.7,10.6,6.1,15.1c1.3,4.1,1.4,4.3,6.6,6.4c3.4,1.4,3.5,1.4,6.6,0.4c2.3-0.7,3.6-1.6,4.8-3.2c1.6-2,5-9.6,5-11.1
	c0-0.4,1.4-3,3-5.9c1.7-3,3.5-6.9,4.2-8.8c0.7-1.9,1.8-4.4,2.5-5.6c0.8-1.2,2-3.4,2.6-5l1.2-2.8l15.5,0.4c8.6,0.2,16.2,0.5,17,0.5
	c1.1,0.1,1.5,0.7,2.2,2.8c0.5,1.5,1.2,3.4,1.7,4.4c0.4,0.9,1.1,3.3,1.5,5.1c0.4,1.9,1,3.6,1.4,3.8c0.4,0.2,4.6,0.5,9.3,0.6
	c9.7,0.2,11.8,0.4,14.2,1.7c1.2,0.7,2.2,0.8,3.6,0.4l1.9-0.5l0.8-6.5c0.4-3.5,1-8.2,1.2-10.3c0.5-3.4,0.4-4-0.6-4.8
	c-1.7-1.5-11.9-3.6-15.3-3.2c-1.5,0.2-3,0.1-3.4-0.1c-1.2-0.8-5.7-29-6.7-42.1c-1.4-18.7-2.2-21.3-6.9-23.5c-3.2-1.6-10-3.1-13.1-3
	C205.9,19.5,200.2,19.8,194.5,20z"/>
</svg>
